<?xml version="1.0" encoding="utf-8"?>
<!-- Generator: Adobe Illustrator 16.0.0, SVG Export Plug-In . SVG Version: 6.00 Build 0)  -->
<!DOCTYPE svg PUBLIC "-//W3C//DTD SVG 1.1//EN" "http://www.w3.org/Graphics/SVG/1.1/DTD/svg11.dtd">
<svg version="1.1" id="pack" xmlns="http://www.w3.org/2000/svg" xmlns:xlink="http://www.w3.org/1999/xlink" x="0px" y="0px"
	 width="64px" height="64px" viewBox="3.947 3.948 64 64" enable-background="new 3.947 3.948 64 64" xml:space="preserve">
<circle id="circle" opacity="0.45" fill="#414042" fill-opacity="0.7" enable-background="new" cx="35.948" cy="35.948" r="31.822"/>
<g id="folder">
		<linearGradient id="back_1_" gradientUnits="userSpaceOnUse" x1="20.7908" y1="743.2424" x2="57.283" y2="727.47" gradientTransform="matrix(1 0 0 1 0 -698.333)">
		<stop  offset="0" style="stop-color:#6E5F2D"/>
		<stop  offset="1" style="stop-color:#978343"/>
	</linearGradient>
	<path id="back" fill="url(#back_1_)" d="M55.094,26.564c0.896,0,1.577,0.756,1.522,1.693l-1.111,19.059
		c-0.057,0.935-0.826,1.691-1.722,1.691H19.499c-0.897,0-1.579-0.756-1.525-1.691l1.115-19.083c0.055-0.934,0.825-1.692,1.72-1.692
		L55.094,26.564z"/>
		<linearGradient id="front_1_" gradientUnits="userSpaceOnUse" x1="14.3879" y1="741.5452" x2="53.2592" y2="728.0829" gradientTransform="matrix(1 0 0 1 0 -698.333)">
		<stop  offset="0" style="stop-color:#D5AF56"/>
		<stop  offset="1" style="stop-color:#C7A451"/>
	</linearGradient>
	<path id="front" fill="url(#front_1_)" d="M28.111,22.887c0.91,0,1.717,0.77,1.803,1.719l0.144,1.599h21.849
		c0.911,0,1.718,0.771,1.803,1.721l1.739,19.362c0.087,0.948-0.584,1.718-1.493,1.718H19.122c-0.91,0-1.715-0.77-1.801-1.718
		l-2.04-22.682c-0.086-0.949,0.583-1.719,1.494-1.719H28.111z"/>
	<g id="label">
			<linearGradient id="base_1_" gradientUnits="userSpaceOnUse" x1="22.6794" y1="49.302" x2="22.6386" y2="46.0776" gradientTransform="matrix(1 0 0 -1 0 72.895)">
			<stop  offset="0.0102" style="stop-color:#F6F6F6"/>
			<stop  offset="1" style="stop-color:#EFEFF0"/>
		</linearGradient>
		<path id="base" fill="url(#base_1_)" d="M26.951,23.931c0.718,0,1.353,0.507,1.42,1.13l0.114,1.053H16.945l-0.114-1.053
			c-0.067-0.623,0.461-1.13,1.178-1.13H26.951z"/>
		<path id="writing" fill="#231F20" d="M19.458,25.816c-0.022,0-0.049-0.007-0.075-0.02c-0.075-0.042-0.007-0.396,0.046-0.616
			c-0.009-0.001-0.016-0.003-0.022-0.007l0.031-0.076c0.003,0.001,0.007,0.003,0.009,0.003c0.016-0.056,0.024-0.093,0.025-0.096
			c0.032-0.113,0.226-0.518,0.419-0.581c0.054-0.019,0.102-0.011,0.146,0.022c0.053,0.041,0.125,0.135,0.023,0.309
			c-0.093,0.16-0.315,0.342-0.489,0.406c0.169,0.11,0.383-0.076,0.57-0.263l0.291-0.281l-0.183,0.291
			c-0.016,0.024-0.042,0.052-0.072,0.084c-0.048,0.053-0.122,0.129-0.113,0.172c0.006,0.032,0.018,0.036,0.023,0.038
			c0.04,0.016,0.126-0.021,0.225-0.093l0.052-0.037c0.023-0.017,0.049-0.036,0.077-0.056c0.006-0.031,0.016-0.064,0.029-0.099
			c0.077-0.199,0.271-0.42,0.398-0.452l0.045-0.013l0.006,0.047c0.026,0.211-0.206,0.417-0.402,0.563
			c-0.003,0.042,0.003,0.079,0.021,0.104c0.019,0.032,0.043,0.043,0.082,0.039c0.032-0.004,0.067-0.021,0.104-0.044
			c0.003-0.038,0.018-0.08,0.043-0.125c0.054-0.095,0.176-0.221,0.273-0.211l0.05,0.006l-0.017,0.048
			c-0.022,0.072-0.136,0.226-0.264,0.323c0.001,0.003,0.003,0.007,0.005,0.009c0.004,0.005,0.017,0.01,0.03,0.01
			c0.062,0.006,0.167-0.032,0.22-0.059l-0.002-0.015c0.012-0.01,0.036-0.029,0.076-0.01l0.058,0.026l-0.049,0.042
			c-0.043,0.037-0.211,0.105-0.31,0.098c-0.039-0.004-0.068-0.019-0.088-0.042c-0.003-0.004-0.007-0.01-0.009-0.015
			c-0.038,0.021-0.074,0.035-0.109,0.04c-0.069,0.01-0.125-0.017-0.162-0.075c-0.019-0.027-0.029-0.056-0.033-0.092
			c-0.008,0.006-0.017,0.012-0.025,0.018l-0.051,0.037c-0.091,0.066-0.219,0.134-0.303,0.104c-0.027-0.01-0.062-0.036-0.074-0.099
			c-0.002-0.008-0.003-0.017-0.003-0.024c-0.119,0.088-0.252,0.152-0.383,0.111c0.038,0.159,0.033,0.401-0.041,0.499
			C19.53,25.798,19.496,25.816,19.458,25.816z M19.432,25.726c0.029,0.012,0.044,0.004,0.058-0.014
			c0.067-0.091,0.055-0.369,0.013-0.481C19.463,25.424,19.418,25.67,19.432,25.726z M19.944,24.495
			c-0.008,0-0.018,0.002-0.026,0.004c-0.146,0.048-0.334,0.412-0.366,0.526c-0.004,0.016-0.01,0.036-0.016,0.058
			c0.136-0.051,0.356-0.207,0.453-0.372c0.08-0.138,0.018-0.187-0.003-0.203C19.972,24.5,19.96,24.495,19.944,24.495z
			 M20.836,24.567c-0.093,0.06-0.219,0.208-0.282,0.359C20.684,24.82,20.813,24.691,20.836,24.567z M22.825,25.828
			c-0.06,0-0.113-0.039-0.145-0.107c-0.036-0.072-0.029-0.203-0.024-0.319c0.003-0.037,0.004-0.069,0.004-0.094
			c-0.002-0.123,0.009-0.245,0.035-0.401c0.026-0.153,0.218-0.477,0.401-0.5c0.061-0.006,0.149,0.014,0.213,0.16
			c0.041,0.092,0.028,0.198-0.036,0.306c-0.075,0.125-0.213,0.238-0.347,0.31c0.001,0,0.003,0,0.005,0
			c0.09,0,0.131-0.034,0.211-0.099c0.031-0.025,0.067-0.055,0.112-0.087c0.139-0.1,0.229-0.048,0.258-0.021
			c0.032,0.028,0.054,0.071,0.062,0.116v0.001c0.027,0.025,0.054,0.052,0.072,0.061c0.053,0.027,0.107,0.032,0.162,0.015
			c0.007-0.133,0.068-0.292,0.148-0.406c0.072-0.104,0.154-0.16,0.227-0.16c0.005,0,0.01,0,0.013,0.001l0.042,0.004l-0.004,0.042
			c-0.019,0.17-0.148,0.462-0.343,0.571c0.003,0.022,0.008,0.042,0.016,0.059c0.018,0.035,0.043,0.052,0.085,0.055
			c0.005,0.001,0.009,0.001,0.012,0.001c0.116,0,0.208-0.134,0.293-0.26c0.016-0.042,0.042-0.082,0.075-0.11
			c0.016-0.022,0.034-0.045,0.051-0.062l0.025-0.026l0.029,0.022c0.008,0.005,0.017,0.011,0.026,0.018
			c0.017,0.01,0.034,0.021,0.049,0.033c0.065-0.145,0.157-0.284,0.236-0.326l0.23-0.125l-0.181,0.19
			c-0.024,0.027-0.074,0.111-0.127,0.199c-0.047,0.079-0.09,0.15-0.129,0.21c-0.023,0.066-0.039,0.128-0.038,0.172
			c0,0.027,0.007,0.036,0.009,0.037c0,0.001,0.021,0.01,0.096-0.043c0.016-0.011,0.032-0.022,0.05-0.038
			c0.008-0.09,0.051-0.187,0.104-0.236c0.053-0.045,0.112-0.053,0.166-0.021l0.018,0.013l0.001,0.021
			c0.004,0.074-0.121,0.191-0.208,0.264c0.001,0.02,0.004,0.04,0.011,0.055c0.01,0.019,0.027,0.045,0.084,0.035
			c0.058-0.009,0.083-0.062,0.113-0.148c0.027-0.07,0.055-0.143,0.123-0.167c0.051-0.019,0.112-0.004,0.187,0.041l0.065,0.039
			l-0.069,0.033c-0.07,0.035-0.13,0.1-0.153,0.167c0.062,0.002,0.123,0.002,0.179,0c0-0.006,0.001-0.012,0.001-0.017l0.083,0.014
			c-0.001,0.004-0.001,0.009-0.001,0.013c0.001,0.012,0.001,0.024-0.003,0.04l-0.009,0.029L25.364,25.4
			c-0.087,0.005-0.181,0.005-0.275,0l-0.043-0.002l0.004-0.043c0.009-0.084,0.064-0.173,0.141-0.233
			c-0.021-0.006-0.039-0.008-0.053-0.002c-0.031,0.011-0.051,0.062-0.071,0.119c-0.031,0.081-0.068,0.183-0.179,0.199
			c-0.08,0.015-0.14-0.017-0.17-0.081c-0.004-0.009-0.009-0.02-0.011-0.031c-0.007,0.004-0.011,0.007-0.011,0.007
			c-0.081,0.057-0.137,0.071-0.181,0.049c-0.023-0.013-0.053-0.041-0.054-0.109c0-0.005,0.001-0.011,0.001-0.017
			c-0.028,0.028-0.055,0.046-0.081,0.052c-0.023,0.005-0.044,0.001-0.061-0.013c-0.019-0.013-0.031-0.031-0.039-0.056
			c-0.075,0.096-0.164,0.179-0.277,0.179c-0.006,0-0.013,0-0.019-0.001c-0.071-0.006-0.124-0.042-0.152-0.102
			c-0.009-0.019-0.016-0.04-0.018-0.062c-0.069,0.019-0.139,0.01-0.205-0.026c-0.014-0.007-0.027-0.017-0.041-0.028
			c-0.003,0.01-0.008,0.018-0.012,0.027c-0.035,0.064-0.1,0.091-0.18,0.069c-0.067-0.018-0.129-0.092-0.138-0.169
			c0-0.003-0.001-0.006-0.001-0.009c-0.015,0.012-0.029,0.023-0.041,0.033c-0.093,0.075-0.151,0.119-0.265,0.119
			c-0.004,0-0.009,0-0.012,0c0.092,0.109,0.137,0.276,0.091,0.405c-0.034,0.092-0.104,0.155-0.178,0.158
			C22.83,25.827,22.827,25.828,22.825,25.828z M22.741,25.253c0,0.019,0,0.036,0,0.054c0,0.026-0.002,0.06-0.002,0.098
			c-0.004,0.096-0.011,0.228,0.015,0.28c0.014,0.027,0.038,0.059,0.072,0.059c0.001,0,0.002,0,0.003,0
			c0.041-0.001,0.083-0.045,0.104-0.103c0.048-0.132-0.036-0.333-0.163-0.394C22.761,25.248,22.751,25.251,22.741,25.253z
			 M23.119,24.487c-0.005,0-0.011,0-0.014,0.001c-0.137,0.018-0.308,0.305-0.33,0.432c-0.016,0.092-0.025,0.173-0.029,0.249
			c0.149-0.042,0.36-0.183,0.456-0.341c0.051-0.084,0.063-0.163,0.032-0.231C23.191,24.5,23.143,24.487,23.119,24.487z
			 M24.141,24.691c-0.036,0.018-0.079,0.056-0.118,0.114c-0.066,0.094-0.112,0.21-0.128,0.309
			C24.014,25.021,24.11,24.84,24.141,24.691z"/>
	</g>
</g>
</svg>