<?xml version="1.0" encoding="utf-8"?>
<!-- Generator: Adobe Illustrator 16.0.0, SVG Export Plug-In . SVG Version: 6.00 Build 0)  -->
<!DOCTYPE svg PUBLIC "-//W3C//DTD SVG 1.1//EN" "http://www.w3.org/Graphics/SVG/1.1/DTD/svg11.dtd">
<svg version="1.1" id="pack_1_" xmlns="http://www.w3.org/2000/svg" xmlns:xlink="http://www.w3.org/1999/xlink" x="0px" y="0px"
	 width="64px" height="64px" viewBox="0 0 64 64" enable-background="new 0 0 64 64" xml:space="preserve">
<g id="case">
	<path opacity="0.65" fill="#414042" d="M0,0v64h64V0H0z M14.938,50.211h-2.625c-1.45,0-2.625-1.857-2.625-4.151V26.69
		c0-2.292,1.175-4.151,2.625-4.151h2.625V50.211z M47.313,50.211H16.688V22.539h6.453l-0.875-0.903v-4.347c0-1.93,1.57-3.5,3.5-3.5
		h12.469c1.931,0,3.5,1.57,3.5,3.5v4.347l-0.875,0.903h6.453V50.211z M54.313,46.06c0,2.294-1.175,4.151-2.625,4.151h-2.625V22.539
		h2.625c1.45,0,2.625,1.859,2.625,4.151V46.06z"/>
	<path opacity="0.65" fill="#414042" d="M39.984,21.636v-4.347c0-0.965-0.785-1.75-1.75-1.75H25.766c-0.965,0-1.75,0.785-1.75,1.75
		v4.347l-0.875,0.903h17.719L39.984,21.636z"/>
</g>
</svg>
